<?xml version="1.0" encoding="utf-8"?>
<!-- Generator: Adobe Illustrator 16.0.0, SVG Export Plug-In . SVG Version: 6.00 Build 0)  -->
<!DOCTYPE svg PUBLIC "-//W3C//DTD SVG 1.1//EN" "http://www.w3.org/Graphics/SVG/1.1/DTD/svg11.dtd">
<svg version="1.1" id="Layer_1" xmlns="http://www.w3.org/2000/svg" xmlns:xlink="http://www.w3.org/1999/xlink" x="0px" y="0px"
	 width="512px" height="512px" viewBox="0 0 512 512" enable-background="new 0 0 512 512" xml:space="preserve">
<path fill="#FFFFFF" d="M255.32,45.89c0,0,18.807-32.698,35.187-32.698c16.379,0,46.104,48.75,46.104,107.607
	c0,58.856-62.787,149.815-81.291,149.815h2.499c-18.766,0-82.444-91.157-82.444-150.141s30.147-107.84,46.759-107.84
	c16.613,0,35.686,32.769,35.686,32.769"/>
<path fill="#FFFFFF" d="M468.586,197.395c0,0,36.897,7.788,41.96,23.37c5.062,15.583-32.102,58.928-88.059,77.116
	s-161.838-13.439-167.556-31.042l0.771,2.377c-5.799-17.853,61.189-106.606,117.268-124.833
	c56.079-18.227,111.843-4.642,116.978,11.162c5.134,15.806-20.127,44.077-20.127,44.077"/>
<path fill="#FFFFFF" d="M387.521,451.805c0,0,3.999,37.512-9.253,47.143c-13.25,9.63-65.944-12.331-100.528-59.947
	c-34.583-47.616-37.232-158.123-22.264-169.001l-2.021,1.468c15.182-11.033,120.263,25.271,154.919,72.991
	c34.659,47.719,38.977,104.971,25.537,114.738s-48.125-5.528-48.125-5.528"/>
<path fill="#FFFFFF" d="M125.896,454.561c0,0-34.428,15.396-47.679,5.765c-13.251-9.63-8.656-66.548,25.927-114.164
	s138.827-84.286,153.795-73.406l-2.021-1.47c15.182,11.033,13.137,122.223-21.521,169.942
	c-34.659,47.72-87.756,69.518-101.194,59.75c-13.439-9.768-9.616-47.492-9.616-47.492"/>
<path fill="#FFFFFF" d="M44.354,199.433c0,0-25.275-27.996-20.215-43.579c5.063-15.583,60.595-28.799,116.553-10.612
	c55.957,18.188,123.032,106.032,117.315,123.634l0.771-2.377c-5.799,17.853-112.142,50.269-168.221,32.04
	c-56.078-18.227-93.21-62.007-88.077-77.811c5.133-15.803,42.183-23.823,42.183-23.823"/>
</svg>
